<?xml version="1.0" encoding="UTF-8" standalone="no"?>
<svg width="75px" height="75px" viewBox="0 0 75 75" version="1.1" xmlns="http://www.w3.org/2000/svg" xmlns:xlink="http://www.w3.org/1999/xlink" xmlns:sketch="http://www.bohemiancoding.com/sketch/ns">
    <!-- Generator: Sketch 3.3.3 (12072) - http://www.bohemiancoding.com/sketch -->
    <title>Untitled 2</title>
    <desc>Created with Sketch.</desc>
    <defs></defs>
    <g id="Page-1" stroke="none" stroke-width="1" fill="none" fill-rule="evenodd" sketch:type="MSPage">
        <path d="M74.202,25.26125 C74.185,25.17125 74.17,25.08125 74.146,24.99325 C74.131,24.94025 74.113,24.89025 74.096,24.83825 C74.071,24.76025 74.045,24.68225 74.014,24.60625 C73.992,24.55325 73.967,24.50225 73.943,24.45125 C73.909,24.37925 73.874,24.30825 73.834,24.23925 C73.806,24.18825 73.774,24.14025 73.743,24.09125 C73.7,24.02525 73.656,23.96025 73.608,23.89725 C73.573,23.85025 73.537,23.80525 73.499,23.76025 C73.449,23.70025 73.395,23.64325 73.341,23.58725 C73.299,23.54525 73.257,23.50325 73.213,23.46225 C73.155,23.40925 73.095,23.35925 73.032,23.31125 C72.984,23.27425 72.937,23.23625 72.887,23.20225 C72.869,23.18925 72.853,23.17425 72.834,23.16225 L38.898,0.53625 C37.827,-0.17875 36.43,-0.17875 35.359,0.53625 L1.421,23.16125 C1.402,23.17325 1.387,23.18825 1.368,23.20125 C1.318,23.23625 1.271,23.27325 1.223,23.31025 C1.161,23.35925 1.1,23.40925 1.042,23.46025 C0.998,23.50025 0.956,23.54225 0.915,23.58525 C0.859,23.64125 0.807,23.69825 0.756,23.75825 C0.718,23.80325 0.682,23.84825 0.647,23.89825 C0.599,23.96125 0.555,24.02525 0.512,24.09225 C0.481,24.14125 0.45,24.18925 0.421,24.24025 C0.381,24.30925 0.346,24.38025 0.313,24.45025 C0.289,24.50125 0.263,24.55325 0.242,24.60525 C0.211,24.68125 0.184,24.75925 0.159,24.83725 C0.142,24.88925 0.124,24.94025 0.11,24.98725 C0.087,25.07525 0.07,25.16425 0.054,25.25525 C0.045,25.30125 0.034,25.34625 0.028,25.39325 C0.01,25.53125 7.10542736e-15,25.66925 7.10542736e-15,25.81025 L7.10542736e-15,48.44025 C7.10542736e-15,48.58025 0.01,48.72025 0.03,48.85725 C0.037,48.90725 0.05,48.94725 0.06,48.99525 C0.076,49.08525 0.09,49.17525 0.12,49.26525 C0.134,49.31525 0.15,49.36525 0.17,49.42025 C0.195,49.50025 0.22,49.58025 0.25,49.65325 C0.271,49.70325 0.3,49.75325 0.32,49.80325 C0.353,49.87325 0.39,49.94325 0.43,50.01625 C0.458,50.06625 0.49,50.11625 0.52,50.16225 C0.563,50.23225 0.61,50.29225 0.66,50.35225 C0.695,50.40225 0.73,50.44225 0.77,50.49025 C0.821,50.55025 0.87,50.61025 0.93,50.66325 C0.971,50.70325 1.01,50.75325 1.06,50.78325 C1.118,50.83325 1.18,50.88325 1.24,50.93525 C1.288,50.97525 1.34,51.00525 1.38,51.04425 C1.399,51.05425 1.41,51.07425 1.43,51.08325 L35.359,73.72025 C35.895,74.08025 36.509,74.26025 37.129,74.25725 C37.749,74.25425 38.363,74.07725 38.899,73.72025 L72.837,51.09525 C72.856,51.08325 72.872,51.06925 72.89,51.05625 C72.94,51.02125 72.987,50.98425 73.035,50.94725 C73.097,50.89825 73.158,50.84725 73.216,50.79525 C73.26,50.75625 73.302,50.71325 73.344,50.67125 C73.399,50.61525 73.452,50.55825 73.502,50.49825 C73.54,50.45325 73.576,50.40825 73.611,50.36025 C73.659,50.29725 73.703,50.23225 73.746,50.16625 C73.777,50.11825 73.808,50.06925 73.837,50.02025 C73.877,49.95025 73.912,49.87925 73.946,49.80725 C73.97,49.75625 73.995,49.70525 74.017,49.65325 C74.048,49.57625 74.074,49.49825 74.099,49.42025 C74.116,49.36825 74.134,49.31725 74.149,49.26525 C74.172,49.17725 74.188,49.08725 74.205,48.99725 C74.213,48.95125 74.225,48.90625 74.23,48.85925 C74.248,48.72125 74.258,48.58325 74.258,48.44225 L74.258,25.81625 C74.258,25.67525 74.247,25.53725 74.23,25.39925 C74.222,25.35025 74.207,25.31025 74.197,25.26125 L74.202,25.26125 Z M37.128,44.67725 L25.843,37.12925 L37.128,29.58025 L48.414,37.12925 L37.128,44.67725 L37.128,44.67725 Z M33.938,24.03725 L20.104,33.29025 L8.937,25.82025 L33.938,9.15325 L33.938,24.03725 L33.938,24.03725 Z M14.365,37.12825 L6.383,42.46725 L6.383,31.78925 L14.365,37.12825 L14.365,37.12825 Z M20.104,40.97025 L33.938,50.22225 L33.938,65.10625 L8.937,48.43725 L20.104,40.96825 L20.104,40.97025 Z M40.319,50.22025 L54.153,40.96825 L65.321,48.43725 L40.319,65.10425 L40.319,50.22025 L40.319,50.22025 Z M59.892,37.13025 L67.875,31.79025 L67.875,42.46925 L59.892,37.12825 L59.892,37.13025 Z M54.153,33.29025 L40.319,24.03825 L40.319,9.15325 L65.321,25.82025 L54.153,33.29025 L54.153,33.29025 Z" id="Shape" fill="#C2C2C2" sketch:type="MSShapeGroup"></path>
    </g>
</svg>